%TF.GenerationSoftware,Altium Limited,DefaultClient, ()*%
G04 Layer_Physical_Order=2*
G04 Layer_Color=36540*
%FSLAX26Y26*%
%MOIN*%
%TF.SameCoordinates,6A039D1A-918F-4F28-B2A4-8CF1FEB5A529*%
%TF.FilePolarity,Positive*%
%TF.FileFunction,Copper,L2,Inr,Signal*%
%TF.Part,Single*%
G01*
G75*
%TA.AperFunction,ComponentPad*%
%ADD33O,0.086614X0.039370*%
%ADD34O,0.070866X0.039370*%
%TA.AperFunction,ViaPad*%
G04:AMPARAMS|DCode=35|XSize=157.48mil|YSize=60mil|CornerRadius=15mil|HoleSize=0mil|Usage=FLASHONLY|Rotation=90.000|XOffset=0mil|YOffset=0mil|HoleType=Round|Shape=RoundedRectangle|*
%AMROUNDEDRECTD35*
21,1,0.157480,0.030000,0,0,90.0*
21,1,0.127480,0.060000,0,0,90.0*
1,1,0.030000,0.015000,0.063740*
1,1,0.030000,0.015000,-0.063740*
1,1,0.030000,-0.015000,-0.063740*
1,1,0.030000,-0.015000,0.063740*
%
%ADD35ROUNDEDRECTD35*%
%TA.AperFunction,ComponentPad*%
%ADD36C,0.042008*%
%TA.AperFunction,ViaPad*%
%ADD37C,0.023622*%
G36*
X830944Y495223D02*
X833377Y493843D01*
X831610Y489096D01*
X829961Y489424D01*
X799961D01*
X791036Y487649D01*
X783469Y482594D01*
X778414Y475027D01*
X776639Y466102D01*
Y436421D01*
X774006Y433788D01*
X767267Y422117D01*
X763779Y409100D01*
Y395624D01*
X767267Y382607D01*
X774006Y370936D01*
X776639Y368303D01*
Y338622D01*
X778414Y329697D01*
X783469Y322131D01*
X791036Y317075D01*
X799961Y315300D01*
X829961D01*
X838886Y317075D01*
X846452Y322131D01*
X851507Y329697D01*
X853283Y338622D01*
Y368303D01*
X855916Y370936D01*
X861142Y379988D01*
X866142Y378648D01*
Y-378648D01*
X861142Y-379988D01*
X855916Y-370936D01*
X853283Y-368303D01*
Y-338622D01*
X851507Y-329697D01*
X846452Y-322131D01*
X838886Y-317075D01*
X829961Y-315300D01*
X799961D01*
X791036Y-317075D01*
X783469Y-322131D01*
X778414Y-329697D01*
X776639Y-338622D01*
Y-368303D01*
X774006Y-370936D01*
X767267Y-382607D01*
X763779Y-395624D01*
Y-409100D01*
X767267Y-422117D01*
X774006Y-433788D01*
X776639Y-436421D01*
Y-466102D01*
X778414Y-475027D01*
X783469Y-482594D01*
X791036Y-487649D01*
X799961Y-489424D01*
X829961D01*
X838886Y-487649D01*
X846452Y-482594D01*
X851507Y-475027D01*
X853283Y-466102D01*
Y-436421D01*
X855916Y-433788D01*
X861142Y-424736D01*
X866142Y-426076D01*
Y-461555D01*
X864629Y-469161D01*
X861661Y-476326D01*
X857352Y-482774D01*
X851869Y-488258D01*
X845420Y-492567D01*
X838255Y-495534D01*
X830649Y-497047D01*
X-810756D01*
X-817175Y-495770D01*
X-818232Y-494424D01*
X-815800Y-489424D01*
X-796024D01*
X-787099Y-487649D01*
X-779532Y-482594D01*
X-774477Y-475027D01*
X-772702Y-466102D01*
Y-436421D01*
X-770069Y-433788D01*
X-763330Y-422117D01*
X-759842Y-409100D01*
Y-395624D01*
X-763330Y-382607D01*
X-770069Y-370936D01*
X-772702Y-368303D01*
Y-338622D01*
X-774477Y-329697D01*
X-779532Y-322131D01*
X-787099Y-317075D01*
X-796024Y-315300D01*
X-826024D01*
X-834949Y-317075D01*
X-842515Y-322131D01*
X-847570Y-329697D01*
X-848195Y-332839D01*
X-853195Y-332343D01*
X-852362Y312008D01*
Y326734D01*
X-847729Y329438D01*
X-847362Y329385D01*
X-842515Y322131D01*
X-834949Y317075D01*
X-826024Y315300D01*
X-796024D01*
X-787099Y317075D01*
X-779532Y322131D01*
X-774477Y329697D01*
X-772702Y338622D01*
Y368303D01*
X-770069Y370936D01*
X-763330Y382607D01*
X-759842Y395624D01*
Y409100D01*
X-763330Y422117D01*
X-770069Y433788D01*
X-772702Y436421D01*
Y466102D01*
X-774477Y475027D01*
X-779532Y482594D01*
X-787099Y487649D01*
X-796024Y489424D01*
X-821430D01*
X-822424Y494424D01*
X-820293Y495307D01*
X-811546Y497047D01*
X821776D01*
X830944Y495223D01*
D02*
G37*
%LPC*%
G36*
X338561Y339567D02*
X330730D01*
X323495Y336570D01*
X317957Y331033D01*
X314961Y323798D01*
Y315966D01*
X317957Y308731D01*
X323495Y303194D01*
X330730Y300197D01*
X338561D01*
X345796Y303194D01*
X351334Y308731D01*
X354331Y315966D01*
Y323798D01*
X351334Y331033D01*
X345796Y336570D01*
X338561Y339567D01*
D02*
G37*
G36*
X707656Y335630D02*
X699825D01*
X692590Y332633D01*
X687052Y327096D01*
X684055Y319861D01*
Y312029D01*
X687052Y304794D01*
X692590Y299257D01*
X699825Y296260D01*
X707656D01*
X714891Y299257D01*
X720428Y304794D01*
X723425Y312029D01*
Y319861D01*
X720428Y327096D01*
X714891Y332633D01*
X707656Y335630D01*
D02*
G37*
G36*
X773601Y319882D02*
X765769D01*
X758534Y316885D01*
X752997Y311348D01*
X750000Y304113D01*
Y296281D01*
X752997Y289046D01*
X758534Y283509D01*
X765769Y280512D01*
X773601D01*
X780836Y283509D01*
X786373Y289046D01*
X789370Y296281D01*
Y304113D01*
X786373Y311348D01*
X780836Y316885D01*
X773601Y319882D01*
D02*
G37*
G36*
X302144Y272638D02*
X294313D01*
X287078Y269641D01*
X281540Y264103D01*
X278543Y256868D01*
Y249037D01*
X281540Y241802D01*
X287078Y236264D01*
X294313Y233268D01*
X302144D01*
X309379Y236264D01*
X314916Y241802D01*
X317913Y249037D01*
Y256868D01*
X314916Y264103D01*
X309379Y269641D01*
X302144Y272638D01*
D02*
G37*
G36*
X223404D02*
X215573D01*
X208338Y269641D01*
X202800Y264103D01*
X199803Y256868D01*
Y249037D01*
X202800Y241802D01*
X208338Y236264D01*
X215573Y233268D01*
X223404D01*
X230639Y236264D01*
X236176Y241802D01*
X239173Y249037D01*
Y256868D01*
X236176Y264103D01*
X230639Y269641D01*
X223404Y272638D01*
D02*
G37*
G36*
X338561Y238189D02*
X330730D01*
X323495Y235192D01*
X317957Y229655D01*
X314961Y222419D01*
Y214588D01*
X317957Y207353D01*
X323495Y201816D01*
X330730Y198819D01*
X338561D01*
X345796Y201816D01*
X351334Y207353D01*
X354331Y214588D01*
Y222419D01*
X351334Y229655D01*
X345796Y235192D01*
X338561Y238189D01*
D02*
G37*
G36*
X-609252Y249057D02*
X-640748D01*
X-647942Y248109D01*
X-654646Y245333D01*
X-660403Y240915D01*
X-664821Y235158D01*
X-667598Y228454D01*
X-668545Y221260D01*
X-667598Y214065D01*
X-664821Y207361D01*
X-660403Y201605D01*
X-654646Y197187D01*
X-647942Y194410D01*
X-640748Y193463D01*
X-609252D01*
X-602058Y194410D01*
X-595354Y197187D01*
X-589597Y201605D01*
X-585179Y207361D01*
X-582402Y214065D01*
X-581455Y221260D01*
X-582402Y228454D01*
X-585179Y235158D01*
X-589597Y240915D01*
X-595354Y245333D01*
X-602058Y248109D01*
X-609252Y249057D01*
D02*
G37*
G36*
X-758858D02*
X-806102D01*
X-813297Y248109D01*
X-820001Y245333D01*
X-825758Y240915D01*
X-830175Y235158D01*
X-832952Y228454D01*
X-833899Y221260D01*
X-832952Y214065D01*
X-830175Y207361D01*
X-825758Y201605D01*
X-820001Y197187D01*
X-813297Y194410D01*
X-806102Y193463D01*
X-758858D01*
X-751664Y194410D01*
X-744960Y197187D01*
X-739203Y201605D01*
X-734785Y207361D01*
X-732009Y214065D01*
X-731061Y221260D01*
X-732009Y228454D01*
X-734785Y235158D01*
X-739203Y240915D01*
X-744960Y245333D01*
X-751664Y248109D01*
X-758858Y249057D01*
D02*
G37*
G36*
X-633880Y114173D02*
X-641711D01*
X-648946Y111176D01*
X-654484Y105639D01*
X-657480Y98404D01*
Y90573D01*
X-654484Y83338D01*
X-648946Y77800D01*
X-641711Y74803D01*
X-633880D01*
X-626645Y77800D01*
X-621107Y83338D01*
X-618110Y90573D01*
Y98404D01*
X-621107Y105639D01*
X-626645Y111176D01*
X-633880Y114173D01*
D02*
G37*
G36*
X-16754Y5906D02*
X-24585D01*
X-31820Y2909D01*
X-37358Y-2629D01*
X-40354Y-9864D01*
Y-17695D01*
X-37358Y-24930D01*
X-31820Y-30468D01*
X-24585Y-33465D01*
X-16754D01*
X-9519Y-30468D01*
X-3981Y-24930D01*
X-984Y-17695D01*
Y-9864D01*
X-3981Y-2629D01*
X-9519Y2909D01*
X-16754Y5906D01*
D02*
G37*
G36*
X-633880Y-74803D02*
X-641711D01*
X-648946Y-77800D01*
X-654484Y-83338D01*
X-657480Y-90573D01*
Y-98404D01*
X-654484Y-105639D01*
X-648946Y-111176D01*
X-641711Y-114173D01*
X-633880D01*
X-626645Y-111176D01*
X-621107Y-105639D01*
X-618110Y-98404D01*
Y-90573D01*
X-621107Y-83338D01*
X-626645Y-77800D01*
X-633880Y-74803D01*
D02*
G37*
G36*
X-17738Y-76772D02*
X-25569D01*
X-32804Y-79769D01*
X-38342Y-85306D01*
X-41339Y-92541D01*
Y-100372D01*
X-38342Y-107607D01*
X-32804Y-113145D01*
X-25569Y-116142D01*
X-17738D01*
X-10503Y-113145D01*
X-4965Y-107607D01*
X-1968Y-100372D01*
Y-92541D01*
X-4965Y-85306D01*
X-10503Y-79769D01*
X-17738Y-76772D01*
D02*
G37*
G36*
X237660Y-89980D02*
X230056D01*
X222712Y-91948D01*
X216127Y-95750D01*
X210750Y-101127D01*
X206948Y-107712D01*
X204980Y-115056D01*
Y-122660D01*
X206948Y-130005D01*
X210750Y-136590D01*
X216127Y-141966D01*
X222712Y-145768D01*
X230056Y-147736D01*
X237660D01*
X245005Y-145768D01*
X251590Y-141966D01*
X256966Y-136590D01*
X260768Y-130005D01*
X262736Y-122660D01*
Y-115056D01*
X260768Y-107712D01*
X256966Y-101127D01*
X251590Y-95750D01*
X245005Y-91948D01*
X237660Y-89980D01*
D02*
G37*
G36*
X37660Y-129980D02*
X30056D01*
X22712Y-131948D01*
X16127Y-135750D01*
X10750Y-141127D01*
X6948Y-147712D01*
X4980Y-155056D01*
Y-162660D01*
X6948Y-170005D01*
X10750Y-176590D01*
X16127Y-181966D01*
X22712Y-185768D01*
X30056Y-187736D01*
X37660D01*
X45005Y-185768D01*
X51590Y-181966D01*
X56966Y-176590D01*
X60768Y-170005D01*
X62736Y-162660D01*
Y-155056D01*
X60768Y-147712D01*
X56966Y-141127D01*
X51590Y-135750D01*
X45005Y-131948D01*
X37660Y-129980D01*
D02*
G37*
G36*
X237660Y-169980D02*
X230056D01*
X222712Y-171948D01*
X216127Y-175750D01*
X210750Y-181127D01*
X206948Y-187712D01*
X204980Y-195056D01*
Y-202660D01*
X206948Y-210005D01*
X210750Y-216590D01*
X216127Y-221966D01*
X222712Y-225768D01*
X230056Y-227736D01*
X237660D01*
X245005Y-225768D01*
X251590Y-221966D01*
X256966Y-216590D01*
X260768Y-210005D01*
X262736Y-202660D01*
Y-195056D01*
X260768Y-187712D01*
X256966Y-181127D01*
X251590Y-175750D01*
X245005Y-171948D01*
X237660Y-169980D01*
D02*
G37*
G36*
X464546Y-203740D02*
X456714D01*
X449479Y-206737D01*
X443942Y-212274D01*
X440945Y-219510D01*
Y-227341D01*
X443942Y-234576D01*
X449479Y-240113D01*
X456714Y-243110D01*
X464546D01*
X471781Y-240113D01*
X477318Y-234576D01*
X480315Y-227341D01*
Y-219510D01*
X477318Y-212274D01*
X471781Y-206737D01*
X464546Y-203740D01*
D02*
G37*
G36*
X-609252Y-193463D02*
X-640748D01*
X-647942Y-194410D01*
X-654646Y-197187D01*
X-660403Y-201605D01*
X-664821Y-207361D01*
X-667598Y-214065D01*
X-668545Y-221260D01*
X-667598Y-228454D01*
X-664821Y-235158D01*
X-660403Y-240915D01*
X-654646Y-245333D01*
X-647942Y-248109D01*
X-640748Y-249057D01*
X-609252D01*
X-602058Y-248109D01*
X-595354Y-245333D01*
X-589597Y-240915D01*
X-585179Y-235158D01*
X-582402Y-228454D01*
X-581455Y-221260D01*
X-582402Y-214065D01*
X-585179Y-207361D01*
X-589597Y-201605D01*
X-595354Y-197187D01*
X-602058Y-194410D01*
X-609252Y-193463D01*
D02*
G37*
G36*
X-758858D02*
X-806102D01*
X-813297Y-194410D01*
X-820001Y-197187D01*
X-825758Y-201605D01*
X-830175Y-207361D01*
X-832952Y-214065D01*
X-833899Y-221260D01*
X-832952Y-228454D01*
X-830175Y-235158D01*
X-825758Y-240915D01*
X-820001Y-245333D01*
X-813297Y-248109D01*
X-806102Y-249057D01*
X-758858D01*
X-751664Y-248109D01*
X-744960Y-245333D01*
X-739203Y-240915D01*
X-734785Y-235158D01*
X-732009Y-228454D01*
X-731061Y-221260D01*
X-732009Y-214065D01*
X-734785Y-207361D01*
X-739203Y-201605D01*
X-744960Y-197187D01*
X-751664Y-194410D01*
X-758858Y-193463D01*
D02*
G37*
G36*
X341514Y-217520D02*
X333683D01*
X326448Y-220517D01*
X320910Y-226054D01*
X317913Y-233289D01*
Y-241120D01*
X320910Y-248355D01*
X326448Y-253893D01*
X333683Y-256890D01*
X341514D01*
X348749Y-253893D01*
X354287Y-248355D01*
X357283Y-241120D01*
Y-233289D01*
X354287Y-226054D01*
X348749Y-220517D01*
X341514Y-217520D01*
D02*
G37*
G36*
X155490Y-227362D02*
X147659D01*
X140424Y-230359D01*
X134887Y-235897D01*
X131890Y-243132D01*
Y-250963D01*
X134887Y-258198D01*
X140424Y-263736D01*
X147659Y-266732D01*
X155490D01*
X162726Y-263736D01*
X168263Y-258198D01*
X171260Y-250963D01*
Y-243132D01*
X168263Y-235897D01*
X162726Y-230359D01*
X155490Y-227362D01*
D02*
G37*
G36*
X411396Y-242126D02*
X403565D01*
X396330Y-245123D01*
X390792Y-250660D01*
X387795Y-257895D01*
Y-265727D01*
X390792Y-272962D01*
X396330Y-278499D01*
X403565Y-281496D01*
X411396D01*
X418631Y-278499D01*
X424168Y-272962D01*
X427165Y-265727D01*
Y-257895D01*
X424168Y-250660D01*
X418631Y-245123D01*
X411396Y-242126D01*
D02*
G37*
%LPD*%
D33*
X-782480Y221260D02*
D03*
Y-221260D02*
D03*
D34*
X-625000D02*
D03*
Y221260D02*
D03*
D35*
X814961Y402362D02*
D03*
Y-402362D02*
D03*
X-811024D02*
D03*
Y402362D02*
D03*
D36*
X233858Y-198858D02*
D03*
Y-118858D02*
D03*
X33858Y-158858D02*
D03*
D37*
X769685Y300197D02*
D03*
X703740Y315945D02*
D03*
X664528Y416339D02*
D03*
X537402Y247047D02*
D03*
X618110Y260827D02*
D03*
X-637795Y94488D02*
D03*
Y-94488D02*
D03*
X-626968Y125984D02*
D03*
X-527559Y-125984D02*
D03*
X-569882Y-345472D02*
D03*
Y347441D02*
D03*
X184055Y-220472D02*
D03*
X201772Y159449D02*
D03*
X585630Y246063D02*
D03*
X334646Y319882D02*
D03*
X460630Y-223425D02*
D03*
X407480Y-261811D02*
D03*
X750000Y-15748D02*
D03*
X675197Y-204724D02*
D03*
X582677Y-134843D02*
D03*
X625984Y-65748D02*
D03*
X775591Y90551D02*
D03*
X776575Y173228D02*
D03*
X-21654Y-96457D02*
D03*
X-20669Y-13780D02*
D03*
X86614Y213543D02*
D03*
X11811Y360236D02*
D03*
X219488Y252953D02*
D03*
X298228D02*
D03*
X183071Y429134D02*
D03*
X-166339Y53150D02*
D03*
X-375118Y153543D02*
D03*
X-276811D02*
D03*
X-457008D02*
D03*
X359252Y-366142D02*
D03*
X260827D02*
D03*
X151575Y-247047D02*
D03*
X337598Y-237205D02*
D03*
X161417Y-366142D02*
D03*
X657480Y-460630D02*
D03*
X555118D02*
D03*
X334646Y218504D02*
D03*
%TF.MD5,3cab1f32e2430e89fe9c74fa9bcba095*%
M02*
