%TF.GenerationSoftware,Altium Limited,DefaultClient, ()*%
G04 Layer_Physical_Order=1*
G04 Layer_Color=255*
%FSLAX26Y26*%
%MOIN*%
%TF.SameCoordinates,6A039D1A-918F-4F28-B2A4-8CF1FEB5A529*%
%TF.FilePolarity,Positive*%
%TF.FileFunction,Copper,L1,Top,Signal*%
%TF.Part,Single*%
G01*
G75*
%TA.AperFunction,SMDPad,CuDef*%
%ADD10R,0.031496X0.039370*%
%TA.AperFunction,ConnectorPad*%
%ADD11R,0.043307X0.023622*%
%ADD12R,0.043307X0.011811*%
%TA.AperFunction,SMDPad,CuDef*%
%ADD13R,0.066929X0.055118*%
%ADD14R,0.039370X0.031496*%
%TA.AperFunction,ConnectorPad*%
%ADD15R,0.078740X0.027559*%
%TA.AperFunction,SMDPad,CuDef*%
%ADD16R,0.055118X0.066929*%
%ADD17R,0.023622X0.047244*%
%ADD18R,0.029528X0.011811*%
%ADD19R,0.011811X0.029528*%
%ADD20R,0.011811X0.021654*%
%ADD21R,0.021654X0.011811*%
%ADD22R,0.011811X0.009842*%
%ADD23R,0.009842X0.011811*%
%TA.AperFunction,ConnectorPad*%
%ADD24R,0.039370X0.114173*%
%ADD25R,0.025591X0.066929*%
%TA.AperFunction,SMDPad,CuDef*%
%ADD26R,0.043307X0.051181*%
%TA.AperFunction,BGAPad,CuDef*%
%ADD27C,0.033976*%
%TA.AperFunction,Conductor*%
%ADD28C,0.019685*%
%ADD29C,0.011811*%
%ADD30C,0.010243*%
%ADD31C,0.015748*%
%ADD32C,0.007874*%
%TA.AperFunction,ComponentPad*%
%ADD33O,0.086614X0.039370*%
%ADD34O,0.070866X0.039370*%
%TA.AperFunction,ViaPad*%
G04:AMPARAMS|DCode=35|XSize=157.48mil|YSize=60mil|CornerRadius=15mil|HoleSize=0mil|Usage=FLASHONLY|Rotation=90.000|XOffset=0mil|YOffset=0mil|HoleType=Round|Shape=RoundedRectangle|*
%AMROUNDEDRECTD35*
21,1,0.157480,0.030000,0,0,90.0*
21,1,0.127480,0.060000,0,0,90.0*
1,1,0.030000,0.015000,0.063740*
1,1,0.030000,0.015000,-0.063740*
1,1,0.030000,-0.015000,-0.063740*
1,1,0.030000,-0.015000,0.063740*
%
%ADD35ROUNDEDRECTD35*%
%TA.AperFunction,ComponentPad*%
%ADD36C,0.042008*%
%TA.AperFunction,ViaPad*%
%ADD37C,0.023622*%
G36*
X-54134Y469488D02*
X52165D01*
X57087Y464567D01*
Y390748D01*
X53150Y386811D01*
X-8858D01*
X-14764Y392716D01*
Y436024D01*
X-16732Y437992D01*
X-138780D01*
X-142716Y441929D01*
Y472441D01*
X-138780Y476378D01*
X-61024D01*
X-54134Y469488D01*
D02*
G37*
G36*
X-394685Y423228D02*
Y372703D01*
X-430118Y325459D01*
Y250984D01*
X-437008Y244095D01*
X-476378D01*
X-484252Y249016D01*
Y252953D01*
X-484252Y317644D01*
X-441929Y370679D01*
X-441929Y423228D01*
X-438976Y426181D01*
X-397638D01*
X-394685Y423228D01*
D02*
G37*
G36*
X-335630Y420276D02*
Y353346D01*
X-323819Y341535D01*
X-112205D01*
X-49213Y278543D01*
X-45535D01*
Y277704D01*
X26844D01*
X31236Y277704D01*
X31496Y278543D01*
X31496Y282597D01*
X31496Y334806D01*
X35273Y338583D01*
X63152Y338583D01*
X66929Y334806D01*
Y255905D01*
X62008Y250984D01*
X-3937D01*
X-7874Y247047D01*
Y246208D01*
X-8134D01*
Y189701D01*
X-11811Y186024D01*
X-66929D01*
X-152559Y271654D01*
X-236220D01*
X-237205Y272638D01*
Y273622D01*
X-238189Y272638D01*
X-312008Y272638D01*
X-346457Y272638D01*
Y248031D01*
X-351378Y243110D01*
X-401452D01*
X-406496Y247594D01*
Y326772D01*
X-380906Y362205D01*
Y421260D01*
X-376969Y425197D01*
X-340551D01*
X-335630Y420276D01*
D02*
G37*
G36*
X475718Y139510D02*
X470010Y133802D01*
X463907D01*
Y153487D01*
X475718D01*
Y139510D01*
D02*
G37*
G36*
X357608Y133802D02*
X351506D01*
X345797Y139510D01*
Y153487D01*
X357608D01*
Y133802D01*
D02*
G37*
G36*
X495403Y121991D02*
X475718D01*
Y128093D01*
X481427Y133802D01*
X495403D01*
Y121991D01*
D02*
G37*
G36*
X345797Y128093D02*
Y121991D01*
X326112D01*
Y133802D01*
X340088D01*
X345797Y128093D01*
D02*
G37*
G36*
X281496Y119094D02*
Y81693D01*
X279528Y79724D01*
X156496D01*
X109252Y32480D01*
X-42323D01*
X-44291Y34449D01*
X-44291Y69634D01*
X-40107Y73819D01*
X96457D01*
X143701Y121063D01*
X279527D01*
X281496Y119094D01*
D02*
G37*
G36*
X495403Y3881D02*
X481427D01*
X475718Y9589D01*
Y15691D01*
X495403D01*
Y3881D01*
D02*
G37*
G36*
X345797Y9589D02*
X340088Y3881D01*
X326112D01*
Y15691D01*
X345797D01*
Y9589D01*
D02*
G37*
G36*
X475718Y-1828D02*
Y-15805D01*
X463907D01*
Y3881D01*
X470010D01*
X475718Y-1828D01*
D02*
G37*
G36*
X357608Y-15805D02*
X345797D01*
Y-1828D01*
X351506Y3881D01*
X357608D01*
Y-15805D01*
D02*
G37*
G36*
X482284Y-163063D02*
Y-192913D01*
X478346Y-196851D01*
X327756D01*
X323819Y-192913D01*
Y-161417D01*
X325517Y-159719D01*
X385827D01*
X389240Y-159040D01*
X477682Y-158487D01*
X482284Y-163063D01*
D02*
G37*
D10*
X-569882Y298228D02*
D03*
X-628937D02*
D03*
X-569882Y-298228D02*
D03*
X-628937D02*
D03*
X-416662Y399606D02*
D03*
X-357607D02*
D03*
X677145Y173228D02*
D03*
X736201D02*
D03*
X677145Y90551D02*
D03*
X736201D02*
D03*
D11*
X-579724Y125984D02*
D03*
Y94488D02*
D03*
Y-94488D02*
D03*
Y-125984D02*
D03*
D12*
Y68898D02*
D03*
Y49213D02*
D03*
Y29528D02*
D03*
Y9842D02*
D03*
Y-9842D02*
D03*
Y-29528D02*
D03*
Y-49213D02*
D03*
Y-68898D02*
D03*
D13*
X-276819Y307795D02*
D03*
Y217795D02*
D03*
D14*
X-375136Y267717D02*
D03*
Y208661D02*
D03*
X-456996Y267716D02*
D03*
Y208661D02*
D03*
X664538Y375000D02*
D03*
Y315945D02*
D03*
X582677Y179134D02*
D03*
Y120079D02*
D03*
X575113Y375000D02*
D03*
Y315945D02*
D03*
X582677Y-65731D02*
D03*
Y-6676D02*
D03*
Y-172807D02*
D03*
Y-231862D02*
D03*
X70866Y112205D02*
D03*
Y53150D02*
D03*
X-110236Y53150D02*
D03*
Y112205D02*
D03*
X255905Y159449D02*
D03*
Y100394D02*
D03*
X-19685Y112205D02*
D03*
Y53150D02*
D03*
X350394Y-116142D02*
D03*
Y-175197D02*
D03*
X456693Y-116142D02*
D03*
Y-175197D02*
D03*
X658465Y-410433D02*
D03*
Y-351378D02*
D03*
X555118Y-408827D02*
D03*
Y-349772D02*
D03*
D15*
X-100423Y402872D02*
D03*
Y459958D02*
D03*
D16*
X111929Y429134D02*
D03*
X21929D02*
D03*
D17*
X48953Y214712D02*
D03*
X11551D02*
D03*
X-25850D02*
D03*
Y309200D02*
D03*
X11551D02*
D03*
X48953D02*
D03*
D18*
X476378Y351703D02*
D03*
Y332018D02*
D03*
Y312333D02*
D03*
Y292647D02*
D03*
Y272962D02*
D03*
Y253278D02*
D03*
Y233592D02*
D03*
X374016D02*
D03*
Y253278D02*
D03*
Y272962D02*
D03*
Y292647D02*
D03*
Y312333D02*
D03*
Y332018D02*
D03*
Y351703D02*
D03*
D19*
X425197Y211939D02*
D03*
Y373356D02*
D03*
D20*
X450128Y-4978D02*
D03*
X430443D02*
D03*
X410758D02*
D03*
X391073D02*
D03*
X371388D02*
D03*
Y142660D02*
D03*
X391073D02*
D03*
X410758D02*
D03*
X430443D02*
D03*
X450128D02*
D03*
D21*
X336939Y29471D02*
D03*
Y49156D02*
D03*
Y68841D02*
D03*
Y88526D02*
D03*
Y108211D02*
D03*
X484577D02*
D03*
Y88526D02*
D03*
Y68841D02*
D03*
Y49156D02*
D03*
Y29471D02*
D03*
D22*
X487529Y9786D02*
D03*
X333986Y127896D02*
D03*
X487529D02*
D03*
X333986Y9786D02*
D03*
D23*
X469813Y145613D02*
D03*
X351702Y-7931D02*
D03*
X469813D02*
D03*
X351702Y145613D02*
D03*
D24*
X432087Y-417323D02*
D03*
X40354D02*
D03*
D25*
X359252Y-307087D02*
D03*
X211614D02*
D03*
X310039D02*
D03*
X260827D02*
D03*
X162402D02*
D03*
X113189D02*
D03*
D26*
X675197Y-155512D02*
D03*
X750000D02*
D03*
X675197Y-64961D02*
D03*
X750000D02*
D03*
D27*
X183858Y-133858D02*
D03*
X133858D02*
D03*
X83858D02*
D03*
X183858Y-183858D02*
D03*
X133858D02*
D03*
X83858D02*
D03*
D28*
X769685Y300197D02*
X770438Y299444D01*
X774375D01*
X808071Y265748D01*
Y62712D02*
Y265748D01*
X263780Y94488D02*
X287402D01*
X665522Y315945D02*
X703740D01*
X661742Y375000D02*
X663140Y373602D01*
X664533Y375005D02*
Y416334D01*
Y375005D02*
X664538Y375000D01*
X664528Y416339D02*
X664533Y416334D01*
X575113Y375000D02*
X661742D01*
X523609Y358255D02*
X539370Y374016D01*
X555593D01*
X664538Y316929D02*
X665522Y315945D01*
X657972Y-460138D02*
Y-405020D01*
X-112205Y53150D02*
X-111221Y52165D01*
X-637795Y-94488D02*
X-579724D01*
X-637795Y94488D02*
X-579724D01*
X-626968Y125984D02*
X-579724D01*
Y-125984D02*
X-527559D01*
X-508858Y256185D02*
X-497327Y267716D01*
X-508858Y114173D02*
Y256185D01*
X-497327Y267716D02*
X-456996D01*
X-579724Y94488D02*
X-528543D01*
X-508858Y114173D01*
X-569882Y298228D02*
Y347441D01*
Y-345472D02*
Y-298228D01*
X-21654Y-187992D02*
X5906Y-215551D01*
X49768D01*
X-21654Y-187992D02*
Y-96457D01*
X218735Y253706D02*
Y297013D01*
X148622Y367126D02*
X218735Y297013D01*
X183858Y-183858D02*
X183957Y-183957D01*
Y-220374D02*
X184055Y-220472D01*
X183957Y-220374D02*
Y-183957D01*
X261811Y159449D02*
X270670D01*
X201772D02*
X255905D01*
X189961Y252953D02*
X219488D01*
X153543Y106439D02*
Y216535D01*
X189961Y252953D01*
X459877Y-181102D02*
X462830Y-178150D01*
X459877Y-222672D02*
Y-181102D01*
X462830Y-178150D02*
X466535D01*
X459877Y-222672D02*
X460630Y-223425D01*
X407480Y-261811D02*
Y-259992D01*
Y-328740D02*
Y-261811D01*
X142716Y-399606D02*
X378233D01*
X389764Y-388075D02*
Y-346457D01*
X378233Y-399606D02*
X389764Y-388075D01*
X113189Y-370079D02*
X142716Y-399606D01*
X389764Y-346457D02*
X407480Y-328740D01*
X750000Y-15748D02*
X750000Y-15748D01*
X749016Y-55118D02*
X750000Y-54134D01*
Y-15748D01*
X675197Y-201772D02*
Y-155512D01*
Y-201772D02*
X675197Y-201772D01*
X589362Y-65740D02*
X625976D01*
X625984Y-65748D01*
X588583Y-64961D02*
X589362Y-65740D01*
X581693Y-133858D02*
X582677Y-134843D01*
Y-172807D02*
Y-134843D01*
X113189Y-370079D02*
Y-307087D01*
X773772Y90551D02*
X774606Y91385D01*
Y91535D01*
X736201Y90551D02*
X773772D01*
X736201Y173228D02*
X773622D01*
X774606Y174213D01*
X678150Y81693D02*
X679134Y82677D01*
X678150Y62712D02*
Y81693D01*
Y62712D02*
X689681Y51181D01*
X796540D02*
X808071Y62712D01*
X689681Y51181D02*
X796540D01*
X80044Y-187328D02*
X80709Y-187992D01*
X86593Y-230294D02*
Y-187992D01*
X77992Y-187328D02*
X80044D01*
X49768Y-215551D02*
X77992Y-187328D01*
X-20177Y-13287D02*
Y52657D01*
X-19685Y53150D01*
X-20669Y-13780D02*
X-20177Y-13287D01*
X259842Y98425D02*
X263780Y94488D01*
X49537Y214128D02*
X86175D01*
X86614Y214567D01*
X48953Y214712D02*
X49537Y214128D01*
X11811Y325787D02*
Y360236D01*
X111929Y429134D02*
X183071D01*
X218735Y253706D02*
X219488Y252953D01*
X-166339Y53150D02*
X-112205D01*
X61303Y156496D02*
X72835Y144965D01*
X29528Y156496D02*
X61303D01*
X69882Y121063D02*
X72835Y124016D01*
Y144965D01*
X13520Y172504D02*
X29528Y156496D01*
X11551Y214712D02*
X13520Y212744D01*
Y172504D02*
Y212744D01*
X-19685Y112205D02*
X64960D01*
X-110236D02*
X-19685D01*
X-110236Y112205D02*
X-110236Y112205D01*
X-276811Y153543D02*
Y204961D01*
X-280512Y208661D02*
X-276811Y204961D01*
X-375127Y153552D02*
X-375118Y153543D01*
X-375127Y206566D02*
X-375000Y206693D01*
X-375127Y153552D02*
Y206566D01*
X-457002Y153549D02*
Y205399D01*
X-457008Y153543D02*
X-457002Y153549D01*
Y205399D02*
X-456693Y205709D01*
X113189Y-282480D02*
Y-256890D01*
X86593Y-230294D02*
X113189Y-256890D01*
X161909Y-365650D02*
Y-316437D01*
X161417Y-315945D02*
X161909Y-316437D01*
X161417Y-366142D02*
X161909Y-365650D01*
X260827Y-366142D02*
Y-307087D01*
X359252Y-364173D02*
Y-307087D01*
X657480Y-404528D02*
X657972Y-405020D01*
X657480Y-460630D02*
X657972Y-460138D01*
X554134Y-458661D02*
X555118Y-457677D01*
Y-408827D01*
X651555Y120079D02*
X673228Y98405D01*
Y94488D02*
Y98405D01*
X582677Y120079D02*
X651555D01*
X672244Y176181D02*
X673228Y177165D01*
X582677Y179134D02*
X585630Y176181D01*
X672244D01*
X527559Y145669D02*
X562992Y181102D01*
X570866D01*
D29*
X287402Y94488D02*
X293364Y88526D01*
X336939D01*
Y68841D02*
Y88526D01*
X476378Y292647D02*
X539045D01*
X550197Y281496D01*
X734223Y449803D02*
X741142Y442884D01*
X532480Y449803D02*
X734223D01*
X657480Y253937D02*
X734223D01*
X741142Y260856D02*
Y442884D01*
X734223Y253937D02*
X741142Y260856D01*
X663553Y315945D02*
X664538Y316929D01*
X575113Y315945D02*
X663553D01*
X476378Y312333D02*
X571501D01*
X575113Y315945D01*
X497372Y233592D02*
X508858Y245079D01*
X535433D02*
X537402Y247047D01*
X508858Y245079D02*
X535433D01*
X476378Y233592D02*
X497372D01*
X618110Y260827D02*
Y262795D01*
X599409Y281496D02*
X618110Y262795D01*
X445866Y363189D02*
X532480Y449803D01*
X550197Y281496D02*
X599409D01*
X511811Y266732D02*
X564541D01*
X425197Y286771D02*
Y305118D01*
X411388Y272962D02*
X425197Y286771D01*
Y305118D02*
X432411Y312333D01*
X476378D01*
X-695866Y-98425D02*
X-666338Y-68898D01*
X-695866Y-227362D02*
X-628937Y-294291D01*
X-695866Y-227362D02*
Y-98425D01*
X-666338Y-68898D02*
X-579724D01*
X-628937Y-298228D02*
Y-294291D01*
X-663386Y49213D02*
X-579724D01*
X-691929Y77756D02*
X-663386Y49213D01*
X-691929Y77756D02*
Y281496D01*
X-675197Y298228D01*
X-628937D01*
X255905Y159449D02*
X257874D01*
X201772Y159449D02*
X201772Y159449D01*
X257874D02*
X261811Y155512D01*
X581562Y249711D02*
X584357D01*
X564541Y266732D02*
X581562Y249711D01*
X584357D02*
X585630Y250984D01*
X498356Y253278D02*
X511811Y266732D01*
X476378Y253278D02*
X498356D01*
X334646Y326772D02*
Y344784D01*
X341565Y351703D01*
X374016D01*
X334646Y319882D02*
X336906Y322142D01*
X374016Y253278D02*
X396329D01*
X345797D02*
X374016D01*
Y272962D02*
X411388D01*
X374016Y332018D02*
X430443D01*
X445866Y347441D02*
Y363189D01*
X430443Y332018D02*
X445866Y347441D01*
X302165Y-158464D02*
X314961Y-145669D01*
X385827D02*
X415354Y-116142D01*
X314961Y-145669D02*
X385827D01*
X624016Y220472D02*
X657480Y253937D01*
X450128Y-39045D02*
Y-4978D01*
X371063Y-70866D02*
X418307D01*
X450128Y-39045D01*
X350394Y-106299D02*
X352333D01*
Y-89596D01*
X371063Y-70866D01*
X456693Y-84646D02*
X469813Y-71526D01*
Y-7931D01*
X456693Y-116142D02*
Y-84646D01*
X313049Y108211D02*
X336939D01*
X163583Y-54134D02*
X260827D01*
X324747Y9786D02*
X333986D01*
X260827Y-54134D02*
X324747Y9786D01*
X87795Y-129921D02*
X163583Y-54134D01*
X299967Y252953D02*
X319977Y272962D01*
X374016D01*
X298228Y252953D02*
X299967D01*
X555118Y-349772D02*
Y-296260D01*
X539370Y-280512D02*
X555118Y-296260D01*
X237205Y-235236D02*
X249016D01*
X271654Y-212599D02*
Y-153543D01*
X249016Y-235236D02*
X271654Y-212599D01*
Y-153543D02*
X309055Y-116142D01*
X211614Y-260827D02*
X237205Y-235236D01*
X211614Y-307087D02*
Y-260827D01*
X302165Y-221457D02*
X310039Y-229331D01*
X302165Y-221457D02*
Y-158464D01*
X310039Y-307087D02*
Y-229331D01*
X415354Y-116142D02*
X456693D01*
X82677Y-129921D02*
X87795D01*
X351702Y-27235D02*
Y-7931D01*
X185039Y-82677D02*
X296260D01*
X351702Y-27235D01*
X512795Y-253937D02*
X538386Y-279527D01*
X512795Y-253937D02*
Y-15480D01*
X487529Y9786D02*
X512795Y-15480D01*
X469813Y177490D02*
X498032Y205709D01*
Y205709D01*
X469813Y145613D02*
Y177490D01*
X498032Y205709D02*
X511811Y219488D01*
X513779Y220472D02*
X624016D01*
X334646Y242126D02*
X345797Y253278D01*
X334646Y218504D02*
Y242126D01*
X351702Y145613D02*
Y154203D01*
X272638Y233268D02*
Y268701D01*
Y233268D02*
X351702Y154203D01*
X296584Y292647D02*
X374016D01*
X272638Y268701D02*
X296584Y292647D01*
X246063Y228346D02*
X327756Y146654D01*
X246063Y228346D02*
Y308071D01*
X327756Y134126D02*
X333986Y127896D01*
X327756Y134126D02*
Y146654D01*
X246063Y308071D02*
X315945Y377953D01*
X424213D01*
X447835Y183071D02*
X450128Y180778D01*
Y142660D02*
Y180778D01*
X447835Y266044D02*
X454753Y272962D01*
X476378D01*
X447835Y184055D02*
Y266044D01*
X371388Y221781D02*
X381890Y232283D01*
X371388Y142660D02*
Y221781D01*
X366142Y233592D02*
X374016D01*
X396329Y253278D02*
X405512Y244095D01*
Y212598D02*
Y244095D01*
X391073Y198159D02*
X405512Y212598D01*
X391073Y142660D02*
Y198159D01*
X410758Y182411D02*
X425197Y196850D01*
Y200787D01*
X410758Y142660D02*
Y182411D01*
X497372Y332018D02*
X511811Y346457D01*
X476378Y332018D02*
X497372D01*
X309055Y-116142D02*
X350394D01*
X137795Y-129921D02*
X185039Y-82677D01*
X133858Y-129921D02*
X137795D01*
X517660Y88526D02*
X527559Y98425D01*
X484577Y88526D02*
X517660D01*
X307087Y114173D02*
X313049Y108211D01*
D30*
X-579724Y-29528D02*
X-547339D01*
X-541339Y10564D02*
X-495024D01*
X-541339Y-23527D02*
Y10564D01*
X-547339Y-29528D02*
X-541339Y-23527D01*
X-579003Y10564D02*
X-541339D01*
X-611126Y-9489D02*
X-580077D01*
X-617126Y-3489D02*
Y23174D01*
X-611126Y29175D02*
X-580077D01*
X-617126Y-3489D02*
X-611126Y-9489D01*
X-617126Y23174D02*
X-611126Y29175D01*
X-580077D02*
X-579724Y29528D01*
X-580077Y-9489D02*
X-579724Y-9842D01*
X-495024Y10564D02*
X-420942Y-63518D01*
X-579003Y28806D02*
X-487468D01*
X-413386Y-45276D01*
X-579724Y29528D02*
X-579003Y28806D01*
X-579724Y9842D02*
X-579003Y10564D01*
X-420942Y-63518D02*
X87072D01*
X-413386Y-45276D02*
X79516D01*
X336218Y48435D02*
X336939Y49156D01*
X173226Y48435D02*
X336218D01*
X79516Y-45276D02*
X173226Y48435D01*
X336218Y30192D02*
X336939Y29471D01*
X180783Y30192D02*
X336218D01*
X87072Y-63518D02*
X180783Y30192D01*
D31*
X39370Y382874D02*
X55118Y367126D01*
X148622D01*
X-39370Y358268D02*
Y390415D01*
X-26748Y310098D02*
Y345646D01*
X-39370Y358268D02*
X-26748Y345646D01*
Y310098D02*
X-25850Y309200D01*
X307087Y114173D02*
Y125984D01*
X273622Y159449D02*
X307087Y125984D01*
X-97192Y399640D02*
X-48595D01*
X-100423Y402872D02*
X-97192Y399640D01*
X-48595D02*
X-39370Y390415D01*
X39370Y382874D02*
Y402559D01*
X511811Y346457D02*
X523609Y358255D01*
X527559Y98425D02*
Y145669D01*
D32*
X133858Y-229331D02*
X151575Y-247047D01*
X133858Y-229331D02*
Y-183858D01*
X329724Y-238189D02*
X438976D01*
X499016Y-298228D01*
Y-449803D02*
Y-298228D01*
Y-449803D02*
X537402Y-488189D01*
X594488D01*
X608268Y-474409D01*
Y-365158D01*
X622047Y-351378D02*
X658465D01*
X608268Y-365158D02*
X622047Y-351378D01*
X784449Y-254921D02*
X812008Y-227362D01*
Y-210630D01*
X658465Y-279527D02*
X683071Y-254921D01*
X784449D01*
X658465Y-351378D02*
Y-279527D01*
X774606Y29527D02*
X812008Y-7874D01*
Y-209646D02*
Y-7874D01*
X588583Y29527D02*
X774606D01*
X549269Y68841D02*
X588583Y29527D01*
X535949Y49156D02*
X569035Y16070D01*
Y5135D02*
Y16070D01*
Y5135D02*
X580846Y-6676D01*
X591781D01*
X484577Y49156D02*
X535949D01*
X484577Y68841D02*
X549269D01*
X511811Y27559D02*
X539370Y-0D01*
Y-216536D02*
Y-0D01*
Y-216536D02*
X554697Y-231862D01*
X591781Y-6676D02*
X656282D01*
X713020Y-231862D02*
X750000Y-194882D01*
X582677Y-231862D02*
X713020D01*
X554697D02*
X582677D01*
X750000Y-194882D02*
Y-155512D01*
X656282Y-6676D02*
X675197Y-25590D01*
Y-64961D02*
Y-25590D01*
X486489Y27559D02*
X511811D01*
X484577Y29471D02*
X486489Y27559D01*
D33*
X-782480Y221260D02*
D03*
Y-221260D02*
D03*
D34*
X-625000D02*
D03*
Y221260D02*
D03*
D35*
X814961Y402362D02*
D03*
Y-402362D02*
D03*
X-811024D02*
D03*
Y402362D02*
D03*
D36*
X233858Y-198858D02*
D03*
Y-118858D02*
D03*
X33858Y-158858D02*
D03*
D37*
X769685Y300197D02*
D03*
X703740Y315945D02*
D03*
X664528Y416339D02*
D03*
X537402Y247047D02*
D03*
X618110Y260827D02*
D03*
X-637795Y94488D02*
D03*
Y-94488D02*
D03*
X-626968Y125984D02*
D03*
X-527559Y-125984D02*
D03*
X-569882Y-345472D02*
D03*
Y347441D02*
D03*
X184055Y-220472D02*
D03*
X201772Y159449D02*
D03*
X585630Y246063D02*
D03*
X334646Y319882D02*
D03*
X460630Y-223425D02*
D03*
X407480Y-261811D02*
D03*
X750000Y-15748D02*
D03*
X675197Y-204724D02*
D03*
X582677Y-134843D02*
D03*
X625984Y-65748D02*
D03*
X775591Y90551D02*
D03*
X776575Y173228D02*
D03*
X-21654Y-96457D02*
D03*
X-20669Y-13780D02*
D03*
X86614Y213543D02*
D03*
X11811Y360236D02*
D03*
X219488Y252953D02*
D03*
X298228D02*
D03*
X183071Y429134D02*
D03*
X-166339Y53150D02*
D03*
X-375118Y153543D02*
D03*
X-276811D02*
D03*
X-457008D02*
D03*
X359252Y-366142D02*
D03*
X260827D02*
D03*
X151575Y-247047D02*
D03*
X337598Y-237205D02*
D03*
X161417Y-366142D02*
D03*
X657480Y-460630D02*
D03*
X555118D02*
D03*
X334646Y218504D02*
D03*
%TF.MD5,5e625617ce5cc37082818ed4269d15b6*%
M02*
