%TF.GenerationSoftware,Altium Limited,DefaultClient, ()*%
G04 Layer_Physical_Order=4*
G04 Layer_Color=16711680*
%FSLAX26Y26*%
%MOIN*%
%TF.SameCoordinates,6A039D1A-918F-4F28-B2A4-8CF1FEB5A529*%
%TF.FilePolarity,Positive*%
%TF.FileFunction,Copper,L4,Bot,Signal*%
%TF.Part,Single*%
G01*
G75*
%TA.AperFunction,Conductor*%
%ADD28C,0.019685*%
%ADD29C,0.011811*%
%ADD32C,0.007874*%
%TA.AperFunction,ComponentPad*%
%ADD33O,0.086614X0.039370*%
%ADD34O,0.070866X0.039370*%
%TA.AperFunction,ViaPad*%
G04:AMPARAMS|DCode=35|XSize=157.48mil|YSize=60mil|CornerRadius=15mil|HoleSize=0mil|Usage=FLASHONLY|Rotation=90.000|XOffset=0mil|YOffset=0mil|HoleType=Round|Shape=RoundedRectangle|*
%AMROUNDEDRECTD35*
21,1,0.157480,0.030000,0,0,90.0*
21,1,0.127480,0.060000,0,0,90.0*
1,1,0.030000,0.015000,0.063740*
1,1,0.030000,0.015000,-0.063740*
1,1,0.030000,-0.015000,-0.063740*
1,1,0.030000,-0.015000,0.063740*
%
%ADD35ROUNDEDRECTD35*%
%TA.AperFunction,ComponentPad*%
%ADD36C,0.042008*%
%TA.AperFunction,ViaPad*%
%ADD37C,0.023622*%
D28*
X768620Y300197D02*
X769685D01*
X752872Y315945D02*
X768620Y300197D01*
X703740Y315945D02*
X752872D01*
X-648622Y-82596D02*
X-637795Y-93423D01*
X-648622Y82596D02*
X-637795Y93423D01*
Y-94488D02*
Y-93423D01*
X-648622Y-82596D02*
Y82596D01*
X-637795Y93423D02*
Y94488D01*
X408233Y-261058D02*
X422997D01*
X407480Y-261811D02*
X408233Y-261058D01*
X422997D02*
X459646Y-224410D01*
X-21161Y-95965D02*
Y-14272D01*
X-21654Y-96457D02*
X-21161Y-95965D01*
Y-14272D02*
X-20669Y-13780D01*
X219488Y252953D02*
X295276D01*
D29*
X334646Y218504D02*
Y318898D01*
D32*
X325112Y-250000D02*
X337598Y-237513D01*
X154528Y-250000D02*
X325112D01*
X337598Y-237513D02*
Y-237205D01*
X151575Y-247047D02*
X154528Y-250000D01*
D33*
X-782480Y221260D02*
D03*
Y-221260D02*
D03*
D34*
X-625000D02*
D03*
Y221260D02*
D03*
D35*
X814961Y402362D02*
D03*
Y-402362D02*
D03*
X-811024D02*
D03*
Y402362D02*
D03*
D36*
X233858Y-198858D02*
D03*
Y-118858D02*
D03*
X33858Y-158858D02*
D03*
D37*
X769685Y300197D02*
D03*
X703740Y315945D02*
D03*
X664528Y416339D02*
D03*
X537402Y247047D02*
D03*
X618110Y260827D02*
D03*
X-637795Y94488D02*
D03*
Y-94488D02*
D03*
X-626968Y125984D02*
D03*
X-527559Y-125984D02*
D03*
X-569882Y-345472D02*
D03*
Y347441D02*
D03*
X184055Y-220472D02*
D03*
X201772Y159449D02*
D03*
X585630Y246063D02*
D03*
X334646Y319882D02*
D03*
X460630Y-223425D02*
D03*
X407480Y-261811D02*
D03*
X750000Y-15748D02*
D03*
X675197Y-204724D02*
D03*
X582677Y-134843D02*
D03*
X625984Y-65748D02*
D03*
X775591Y90551D02*
D03*
X776575Y173228D02*
D03*
X-21654Y-96457D02*
D03*
X-20669Y-13780D02*
D03*
X86614Y213543D02*
D03*
X11811Y360236D02*
D03*
X219488Y252953D02*
D03*
X298228D02*
D03*
X183071Y429134D02*
D03*
X-166339Y53150D02*
D03*
X-375118Y153543D02*
D03*
X-276811D02*
D03*
X-457008D02*
D03*
X359252Y-366142D02*
D03*
X260827D02*
D03*
X151575Y-247047D02*
D03*
X337598Y-237205D02*
D03*
X161417Y-366142D02*
D03*
X657480Y-460630D02*
D03*
X555118D02*
D03*
X334646Y218504D02*
D03*
%TF.MD5,d21691f0af7b7080a52dca9a60cdcaa8*%
M02*
