M48
;Layer_Color=9474304
;FILE_FORMAT=2:5
INCH,LZ
;TYPE=PLATED
T1F00S00C0.01181
T3F00S00C0.08661
;TYPE=NON_PLATED
T4F00S00C0.04201
%
T01
X0035925Y-0036614
X003376Y-002372
X0040748Y-0026181
X0046063Y-0022343
X0058268Y-0013484
X0062598Y-0006575
X0075Y-0001575
X0077559Y0009055
X0077658Y0017323
X0076968Y003002
X0070374Y0031594
X0066453Y0041634
X0061811Y0026083
X0058563Y0024606
X005374Y0024705
X0033465Y002185
X0029823Y0025295
X0033465Y0031988
X006752Y-0020472
X0065748Y-0046063
X0055512
X0026083Y-0036614
X0016142
X0015157Y-0024705
X0018406Y-0022047
X-0002165Y-0009646
X-0002067Y-0001378
X-0016634Y0005315
X-0027681Y0015354
X-0037512
X-0045701
X-0062697Y0012598
X-0063779Y0009449
Y-0009449
X-0052756Y-0012598
X-0056988Y-0034547
Y0034744
X0001181Y0036024
X0008661Y0021354
X0020177Y0015945
X0021949Y0025295
X0018307Y0042913
T03
X0081496Y-0040236
Y0040236
X-0081102
Y-0040236
T04
X0003386Y-0015886
X0023386Y-0019886
Y-0011886
M30
